# xmcd
#
# Track frame offsets:
#	150
#	10892
#	22249
#	38195
#	53501
#	67932
#	83517
#	97054
#	108146
#	121271
#	138146
#	155399
#	175084
#	186184
#	196814
#	215561
#	229630
#	242238
#	257102
#	280903
#	294002
#	323637
#	340058
#
# Disc length: 4722 seconds
#
# Revision: 0
# Processed by: cddbd v1.5.2PL0 Copyright (c) Steve Scherf et al.
# Submitted via: EZCDAudioConverter 4.0.5.1
#
DISCID=33127017
DTITLE=Kris Kristofferson - Extras
DYEAR=1966
DGENRE=Country
TTITLE0=Golden Idol
TTITLE1=Killing Time
TTITLE2=Hello In There
TTITLE3=The Junkie And The Juicehead Minus Me
TTITLE4=Shadows Of Her Mind
TTITLE5=The Lady's Not For Sale
TTITLE6=From The Bottle To The Bottom
TTITLE7=The Bandits Of Beverly Hills
TTITLE8=Here Comes That Rainbow Again
TTITLE9=The Bigger The Fool, The Harder The Fall
TTITLE10=Help Me Make It Through The Night
TTITLE11=Born To Love Me
TTITLE12=Put It Off Until Tomorrow
TTITLE13=Ping Pong
TTITLE14=Casey's Last Ride
TTITLE15=To Make A Long Story Short, She's Gone
TTITLE16=How Do You Feel About Foolin' Around
TTITLE17=Eye Of The Storm
TTITLE18=Crossing The Border
TTITLE19=Down To Her Socks
TTITLE20=Under The Gun
TTITLE21=The Final Attraction
TTITLE22=I'll Be Your Baby Tonight
EXTD=
EXTT0=
EXTT1=
EXTT2=
EXTT3=
EXTT4=
EXTT5=
EXTT6=
EXTT7=
EXTT8=
EXTT9=
EXTT10=
EXTT11=
EXTT12=
EXTT13=
EXTT14=
EXTT15=
EXTT16=
EXTT17=
EXTT18=
EXTT19=
EXTT20=
EXTT21=
EXTT22=
PLAYORDER=
